<svg width="96" height="96" viewBox="0 0 96 96" fill="none" xmlns="http://www.w3.org/2000/svg">
<path fill-rule="evenodd" clip-rule="evenodd" d="M25.7569 43.1392C19.5525 43.1392 14.5229 48.1463 14.5229 54.3228C14.5229 60.4993 19.5525 65.5063 25.7569 65.5063C31.9612 65.5063 36.9908 60.4993 36.9908 54.3228C36.9908 48.1463 31.9612 43.1392 25.7569 43.1392ZM8 54.3228C8 44.5599 15.95 36.6456 25.7569 36.6456C35.5637 36.6456 43.5138 44.5599 43.5138 54.3228C43.5138 64.0856 35.5637 72 25.7569 72C15.95 72 8 64.0856 8 54.3228Z" fill="white"/>
<path fill-rule="evenodd" clip-rule="evenodd" d="M69.2431 43.1392C63.0388 43.1392 58.0092 48.1463 58.0092 54.3228C58.0092 60.4993 63.0388 65.5063 69.2431 65.5063C75.4475 65.5063 80.4771 60.4993 80.4771 54.3228C80.4771 48.1463 75.4475 43.1392 69.2431 43.1392ZM51.4862 54.3228C51.4862 44.5599 59.4363 36.6456 69.2431 36.6456C79.05 36.6456 87 44.5599 87 54.3228C87 64.0856 79.05 72 69.2431 72C59.4363 72 51.4862 64.0856 51.4862 54.3228Z" fill="white"/>
<path fill-rule="evenodd" clip-rule="evenodd" d="M40.0689 46.925C42.0397 44.963 44.7128 43.8608 47.5 43.8608C50.2872 43.8608 52.9603 44.963 54.9311 46.925C56.902 48.887 58.0092 51.5481 58.0092 54.3228C58.0092 56.116 56.549 57.5696 54.7477 57.5696C52.9464 57.5696 51.4862 56.116 51.4862 54.3228C51.4862 53.2703 51.0663 52.2609 50.3187 51.5167C49.5711 50.7725 48.5572 50.3544 47.5 50.3544C46.4428 50.3544 45.4289 50.7725 44.6813 51.5167C43.9337 52.2609 43.5138 53.2703 43.5138 54.3228C43.5138 56.116 42.0536 57.5696 40.2523 57.5696C38.451 57.5696 36.9908 56.116 36.9908 54.3228C36.9908 51.5481 38.098 48.887 40.0689 46.925Z" fill="white"/>
<path fill-rule="evenodd" clip-rule="evenodd" d="M25.08 26.8627C26.245 24.7312 27.2133 23.4849 28.2683 22.7185C29.2552 22.0015 30.6148 21.4937 33.0046 21.4937C34.8058 21.4937 36.2661 20.04 36.2661 18.2468C36.2661 16.4537 34.8058 15 33.0046 15C29.5962 15 26.7883 15.7548 24.4232 17.473C22.1488 19.1252 20.5993 21.4492 19.2614 23.9227C19.2103 24.0172 19.1639 24.1142 19.1224 24.2132L10.0628 45.8588C9.37002 47.5141 10.1563 49.415 11.819 50.1047C13.4817 50.7944 15.3912 50.0116 16.084 48.3564L25.08 26.8627Z" fill="white"/>
<path fill-rule="evenodd" clip-rule="evenodd" d="M58.7339 18.2468C58.7339 16.4537 60.1942 15 61.9954 15C65.2613 15 68.0377 15.7727 70.4074 17.449C72.7094 19.0773 74.3584 21.371 75.7386 23.9227C75.7897 24.0172 75.8361 24.1142 75.8776 24.2132L84.9372 45.8588C85.63 47.5141 84.8437 49.415 83.181 50.1047C81.5183 50.7944 79.6088 50.0116 78.916 48.3564L69.9204 26.8636C68.7925 24.8065 67.7453 23.5318 66.6293 22.7425C65.5564 21.9836 64.1653 21.4937 61.9954 21.4937C60.1942 21.4937 58.7339 20.04 58.7339 18.2468Z" fill="white"/>
</svg>
