<svg width="171" height="60" viewBox="0 0 171 60" fill="none" xmlns="http://www.w3.org/2000/svg">
<path d="M20 41.6667C23.6819 41.6667 26.6667 38.6819 26.6667 35C26.6667 31.3181 23.6819 28.3333 20 28.3333C16.3181 28.3333 13.3333 31.3181 13.3333 35C13.3333 38.6819 16.3181 41.6667 20 41.6667Z" stroke="white" stroke-width="3" stroke-linecap="round" stroke-linejoin="round"/>
<path d="M40 41.6667C43.6819 41.6667 46.6667 38.6819 46.6667 35C46.6667 31.3181 43.6819 28.3333 40 28.3333C36.3181 28.3333 33.3333 31.3181 33.3333 35C33.3333 38.6819 36.3181 41.6667 40 41.6667Z" stroke="white" stroke-width="3" stroke-linecap="round" stroke-linejoin="round"/>
<path d="M33.3333 35C33.3333 34.1159 32.9821 33.2681 32.357 32.643C31.7319 32.0178 30.884 31.6667 30 31.6667C29.1159 31.6667 28.2681 32.0178 27.643 32.643C27.0178 33.2681 26.6667 34.1159 26.6667 35" stroke="white" stroke-width="3" stroke-linecap="round" stroke-linejoin="round"/>
<path d="M14.1667 31.6667L18.3333 21.6667C19.5 19.5 20.6667 18.3333 23.3333 18.3333" stroke="white" stroke-width="3" stroke-linecap="round" stroke-linejoin="round"/>
<path d="M45.8333 31.6667L41.6667 21.6667C40.5 19.5 39.1667 18.3333 36.6667 18.3333" stroke="white" stroke-width="3" stroke-linecap="round" stroke-linejoin="round"/>
<path d="M64.5256 38.5H60.571L66.5966 21.0455H71.3523L77.3693 38.5H73.4148L69.0426 25.0341H68.9062L64.5256 38.5ZM64.2784 31.6392H73.6193V34.5199H64.2784V31.6392ZM83.2327 21.0455V38.5H79.602V21.0455H83.2327ZM90.074 38.7472C89.2388 38.7472 88.4945 38.6023 87.8411 38.3125C87.1876 38.017 86.6706 37.5824 86.2899 37.0085C85.9149 36.429 85.7274 35.7074 85.7274 34.8438C85.7274 34.1165 85.8609 33.5057 86.128 33.0114C86.395 32.517 86.7587 32.1193 87.2189 31.8182C87.6791 31.517 88.2018 31.2898 88.7871 31.1364C89.378 30.983 89.9973 30.875 90.645 30.8125C91.4064 30.733 92.02 30.6591 92.4859 30.5909C92.9518 30.517 93.2899 30.4091 93.5001 30.267C93.7104 30.125 93.8155 29.9148 93.8155 29.6364V29.5852C93.8155 29.0455 93.645 28.6278 93.3041 28.3324C92.9689 28.0369 92.4916 27.8892 91.8723 27.8892C91.2189 27.8892 90.699 28.0341 90.3126 28.3239C89.9263 28.608 89.6706 28.9659 89.5456 29.3977L86.1876 29.125C86.3581 28.3295 86.6933 27.642 87.1933 27.0625C87.6933 26.4773 88.3382 26.0284 89.128 25.7159C89.9234 25.3977 90.8439 25.2386 91.8893 25.2386C92.6166 25.2386 93.3126 25.3239 93.9774 25.4943C94.6479 25.6648 95.2416 25.929 95.7587 26.2869C96.2814 26.6449 96.6933 27.1051 96.9945 27.6676C97.2956 28.2244 97.4462 28.892 97.4462 29.6705V38.5H94.003V36.6847H93.9007C93.6905 37.0938 93.4092 37.4545 93.057 37.767C92.7047 38.0739 92.2814 38.3153 91.7871 38.4915C91.2928 38.6619 90.7217 38.7472 90.074 38.7472ZM91.1138 36.2415C91.6479 36.2415 92.1195 36.1364 92.5286 35.9261C92.9376 35.7102 93.2587 35.4205 93.4916 35.0568C93.7246 34.6932 93.8411 34.2812 93.8411 33.821V32.4318C93.7274 32.5057 93.5712 32.5739 93.3723 32.6364C93.1791 32.6932 92.9604 32.7472 92.7161 32.7983C92.4717 32.8437 92.2274 32.8864 91.9831 32.9261C91.7388 32.9602 91.5172 32.9915 91.3183 33.0199C90.8922 33.0824 90.52 33.1818 90.2018 33.3182C89.8837 33.4545 89.6365 33.6392 89.4604 33.8722C89.2842 34.0994 89.1962 34.3835 89.1962 34.7244C89.1962 35.2188 89.3751 35.5966 89.7331 35.858C90.0967 36.1136 90.557 36.2415 91.1138 36.2415ZM104.094 30.9318V38.5H100.463V25.4091H103.923V27.7188H104.077C104.366 26.9574 104.852 26.3551 105.534 25.9119C106.216 25.4631 107.042 25.2386 108.014 25.2386C108.923 25.2386 109.716 25.4375 110.392 25.8352C111.068 26.233 111.594 26.8011 111.969 27.5398C112.344 28.2727 112.531 29.1477 112.531 30.1648V38.5H108.9V30.8125C108.906 30.0114 108.702 29.3864 108.287 28.9375C107.872 28.483 107.301 28.2557 106.574 28.2557C106.085 28.2557 105.653 28.3608 105.278 28.571C104.909 28.7812 104.619 29.0881 104.409 29.4915C104.204 29.8892 104.099 30.3693 104.094 30.9318ZM121.415 21.0455H125.967L130.773 32.7727H130.978L135.785 21.0455H140.336V38.5H136.756V27.1392H136.612L132.094 38.4148H129.657L125.14 27.0966H124.995V38.5H121.415V21.0455ZM146.73 21.0455L150.949 34.3068H151.111L155.338 21.0455H159.429L153.412 38.5H148.656L142.63 21.0455H146.73Z" fill="white"/>
</svg>
