<svg width="61" height="60" viewBox="0 0 61 60" fill="none" xmlns="http://www.w3.org/2000/svg">
<path d="M28.0958 7.80054L29.3961 10.2428C29.6885 10.6935 30.0052 11.0924 30.3782 11.4639C31.4719 12.5439 32.4913 13.6966 33.4295 14.9141C35.6327 17.8071 37.1188 21.0198 38.18 24.4944C38.8165 26.6169 39.1621 28.7942 39.188 30.9959C39.2946 37.5781 37.0381 43.23 32.4885 47.9272C31.7485 48.6721 30.949 49.3555 30.0981 49.9706C29.6474 49.9706 29.4342 49.6249 29.2484 49.3067C28.9102 48.7166 28.685 48.0686 28.5846 47.3958C28.4247 46.5995 28.3196 45.8032 28.3714 44.981V44.6095C28.3349 44.5303 27.9375 7.98782 28.0958 7.80054Z" fill="#599636"/>
<path d="M28.0957 7.71986C28.0424 7.61328 27.9892 7.69398 27.9359 7.74575C27.9617 8.27866 27.776 8.75371 27.4852 9.20745C27.1654 9.65814 26.7421 10.0038 26.3173 10.3753C23.9573 12.4186 22.0997 14.8868 20.6121 17.6472C18.6328 21.3624 17.6126 25.344 17.3233 29.5357C17.1909 31.0477 17.8014 36.3829 18.278 37.9222C19.5783 42.0089 21.914 45.4332 24.9394 48.4053C25.6824 49.121 26.4772 49.7848 27.2994 50.4228C27.5385 50.4228 27.5643 50.2096 27.6192 50.0513C27.724 49.7124 27.8039 49.3664 27.8582 49.0159L28.3911 45.0358L28.0957 7.71986Z" fill="#6CAC48"/>
<path d="M29.3961 51.5876C29.4494 50.9785 29.7417 50.473 30.0599 49.969C29.7402 49.8366 29.5026 49.5732 29.3169 49.2793C29.1567 49.0011 29.0241 48.7078 28.921 48.4038C28.5495 47.2893 28.4703 46.1199 28.3637 44.981V44.2913C28.2313 44.3978 28.2039 45.2992 28.2039 45.4332C28.1264 46.6369 27.9666 47.834 27.7258 49.0159C27.6466 49.494 27.5933 49.9706 27.2994 50.3954C27.2994 50.4487 27.2994 50.502 27.3253 50.5811C27.8034 51.988 27.9344 53.4208 28.0151 54.881V55.4139C28.0151 56.0503 27.9892 55.9163 28.5175 56.1295C28.7307 56.2087 28.9682 56.2361 29.1814 56.3944C29.3413 56.3944 29.3671 56.262 29.3671 56.1554L29.288 55.2799V52.8376C29.2621 52.4113 29.3413 51.988 29.3945 51.5891L29.3961 51.5876Z" fill="#C2BFBF"/>
</svg>
