<svg width="71" height="70" viewBox="0 0 71 70" fill="none" xmlns="http://www.w3.org/2000/svg">
<path d="M61.4663 17.8006C58.1523 13.5091 53.64 10.2968 48.5002 8.56999C43.3604 6.84315 37.8239 6.67932 32.591 8.09921C27.3581 9.51911 22.6638 12.459 19.1018 16.5469C15.5397 20.6349 13.27 25.6874 12.5797 31.0655C11.8893 36.4435 12.8094 41.9054 15.2234 46.7605C17.6374 51.6156 21.4371 55.6458 26.1417 58.3413C30.8464 61.0368 36.2447 62.2767 41.654 61.9039C47.0633 61.5312 52.2406 59.5628 56.5311 56.2474C68.5072 46.9921 70.7183 29.781 61.4663 17.8006Z" fill="#FF6C37"/>
<path d="M49.0157 24.6094L37.4567 36.26L34.1903 32.9019C45.5667 21.5254 46.7078 22.5534 49.0157 24.6094Z" fill="white"/>
<path d="M37.4568 36.5785C37.3544 36.576 37.2566 36.5354 37.1826 36.4646L33.893 33.175C33.819 33.0984 33.7776 32.9959 33.7776 32.8893C33.7776 32.7827 33.819 32.6803 33.893 32.6036C45.1093 21.3874 46.6401 21.9125 49.2898 24.3112C49.3342 24.3467 49.3696 24.392 49.3934 24.4436C49.4172 24.4952 49.4287 24.5516 49.4269 24.6084C49.444 24.7198 49.4012 24.8337 49.3129 24.9057L37.754 36.4655C37.673 36.5398 37.5667 36.5796 37.4568 36.5785ZM34.7608 32.9009L37.4568 35.5968L48.422 24.6316C48.0434 24.1571 47.5032 23.8389 46.9046 23.7377C46.3061 23.6366 45.6913 23.7596 45.1778 24.0833C43.1904 24.9742 39.9925 27.6924 34.7608 32.9009Z" fill="#FF6C37"/>
<path d="M40.7695 39.4809L37.6169 36.2599L49.1758 24.8372C52.283 27.8757 47.6681 32.948 40.7695 39.4809Z" fill="white"/>
<path d="M40.7694 39.8921C40.6683 39.8841 40.5723 39.8442 40.4953 39.7782L37.2743 36.6257C37.226 36.5085 37.226 36.377 37.2743 36.2599C37.24 36.1638 37.24 36.0587 37.2743 35.9626L48.8332 24.4037C48.9136 24.3282 49.0197 24.2861 49.13 24.2861C49.2403 24.2861 49.3465 24.3282 49.4268 24.4037C49.8012 24.7482 50.0969 25.1693 50.294 25.6384C50.491 26.1074 50.5847 26.6134 50.5688 27.1219C50.5688 30.2059 47.0505 34.0891 41.0658 39.7551C40.9859 39.8342 40.8815 39.8827 40.7694 39.8921ZM38.2106 36.2599L40.7917 38.8401C45.3603 34.5226 49.7241 30.0679 49.7464 27.0525C49.7712 26.4132 49.5599 25.7872 49.1527 25.2938L38.2106 36.2599Z" fill="#FF6C37"/>
<path d="M34.2811 32.9702L36.5658 35.2549C36.5804 35.2678 36.5921 35.2836 36.6001 35.3013C36.6081 35.319 36.6122 35.3383 36.6122 35.3577C36.6122 35.3772 36.6081 35.3964 36.6001 35.4141C36.5921 35.4318 36.5804 35.4477 36.5658 35.4605L31.7454 36.4885C31.6481 36.5095 31.5466 36.4981 31.4563 36.4561C31.3661 36.4141 31.292 36.3437 31.2455 36.2558C31.1989 36.1678 31.1824 36.067 31.1984 35.9687C31.2144 35.8705 31.2621 35.7802 31.3342 35.7115L34.144 32.9248C34.144 32.9248 34.2357 32.9248 34.2811 32.9702Z" fill="white"/>
<path d="M31.6315 36.9451C31.4792 36.9432 31.3299 36.9022 31.1979 36.8262C31.0659 36.7502 30.9557 36.6416 30.8776 36.5108C30.7898 36.3451 30.7579 36.1554 30.7868 35.9701C30.8157 35.7848 30.9037 35.6139 31.0378 35.4828L33.8245 32.6729C33.925 32.5831 34.0551 32.5334 34.1899 32.5334C34.3247 32.5334 34.4548 32.5831 34.5553 32.6729L36.84 34.9576C36.9753 35.0861 37.0284 35.2806 36.977 35.4605C36.9256 35.6404 36.7749 35.7835 36.589 35.8263L31.7685 36.8543L31.6315 36.9451ZM34.1903 33.4731L31.6092 36.0542L35.8814 35.1401L34.1903 33.4731Z" fill="#FF6C37"/>
<path d="M55.1613 18.1895C53.508 16.5944 50.9106 16.5276 49.1767 18.0327C47.4428 19.5379 47.1464 22.1216 48.4965 23.9805C49.8466 25.8395 52.3918 26.3603 54.3621 25.1799L51.255 22.0727L55.1613 18.1895Z" fill="white"/>
<path d="M52.0774 26.23C51.1275 26.2178 50.2022 25.9264 49.4167 25.392C48.6313 24.8576 48.0205 24.1039 47.6604 23.2248C47.3006 22.3464 47.2062 21.3818 47.3889 20.4503C47.5716 19.5187 48.0234 18.6612 48.6884 17.9838C49.603 17.086 50.8335 16.583 52.1151 16.583C53.3967 16.583 54.6271 17.086 55.5417 17.9838C55.6291 18.0575 55.6788 18.1663 55.6788 18.2811C55.6786 18.3375 55.6662 18.3933 55.6426 18.4446C55.6189 18.4959 55.5845 18.5415 55.5417 18.5783L51.8409 22.0735L54.6508 24.8379C54.6963 24.8814 54.7305 24.9354 54.7504 24.9951C54.7702 25.0548 54.7751 25.1185 54.7647 25.1806C54.7579 25.2405 54.7381 25.2982 54.7066 25.3495C54.675 25.4009 54.6326 25.4447 54.5822 25.4779C53.8274 25.9497 52.9596 26.2101 52.0697 26.2317L52.0774 26.23ZM52.0774 17.3662C50.4497 17.3747 48.9934 18.3539 48.3826 19.8505C47.7718 21.3471 48.1042 23.0698 49.2453 24.2194C49.8128 24.7903 50.5396 25.1764 51.3303 25.3273C52.121 25.4782 52.9389 25.3867 53.6768 25.065L50.9809 22.369C50.938 22.3348 50.9034 22.2913 50.8796 22.2418C50.8558 22.1924 50.8435 22.1382 50.8435 22.0834C50.8435 22.0285 50.8558 21.9743 50.8796 21.9248C50.9034 21.8754 50.938 21.8319 50.9809 21.7977L54.5446 18.2108C53.8361 17.6679 52.9699 17.3719 52.0774 17.3662Z" fill="#FF6C37"/>
<path d="M55.2299 18.2581L51.3235 22.1413L54.4306 25.2484C54.7433 25.0689 55.0345 24.8542 55.2984 24.6085C56.1127 23.7477 56.5608 22.6043 56.548 21.4194C56.5352 20.2346 56.0626 19.101 55.2299 18.2581Z" fill="white"/>
<path d="M54.3612 25.5911C54.3099 25.5939 54.2586 25.5851 54.2111 25.5653C54.1637 25.5456 54.1213 25.5155 54.0871 25.4771L50.9799 22.37C50.9371 22.3358 50.9025 22.2923 50.8787 22.2428C50.8549 22.1934 50.8426 22.1392 50.8426 22.0843C50.8426 22.0295 50.8549 21.9753 50.8787 21.9258C50.9025 21.8764 50.9371 21.8329 50.9799 21.7987L54.8632 17.9839C54.9007 17.9274 54.9516 17.881 55.0114 17.8489C55.0712 17.8168 55.138 17.8 55.2058 17.8C55.2737 17.8 55.3405 17.8168 55.4003 17.8489C55.4601 17.881 55.511 17.9274 55.5485 17.9839C56.0044 18.4306 56.3666 18.9638 56.6138 19.5522C56.861 20.1405 56.9884 20.7724 56.9884 21.4106C56.9884 22.0488 56.861 22.6806 56.6138 23.269C56.3666 23.8574 56.0044 24.3906 55.5485 24.8372C55.2796 25.1225 54.9719 25.3684 54.6345 25.568C54.5495 25.6108 54.4521 25.6191 54.3612 25.5911ZM51.8486 22.0736L54.4297 24.6548C54.6073 24.5303 54.7753 24.3929 54.9326 24.2436C55.6913 23.4869 56.1187 22.4599 56.1208 21.3883C56.1225 20.4293 55.773 19.5029 55.1382 18.7841L51.8486 22.0736Z" fill="#FF6C37"/>
<path d="M49.4954 25.089C49.186 24.7985 48.7775 24.6367 48.353 24.6367C47.9286 24.6367 47.5201 24.7985 47.2107 25.089L36.8631 35.4135L38.5764 37.1499L49.5185 27.5553C49.6854 27.3954 49.8178 27.203 49.9075 26.99C49.9972 26.777 50.0424 26.5479 50.0402 26.3167C50.038 26.0856 49.9886 25.8574 49.8949 25.6461C49.8012 25.4348 49.6652 25.2458 49.4954 25.089Z" fill="white"/>
<path d="M38.4847 37.5621C38.3824 37.5596 38.2846 37.5189 38.2106 37.4481L36.4742 35.7117C36.4001 35.635 36.3587 35.5326 36.3587 35.426C36.3587 35.3194 36.4001 35.217 36.4742 35.1403L46.8226 24.8373C47.1207 24.5395 47.5013 24.3383 47.9152 24.2595C48.329 24.1807 48.757 24.2281 49.1436 24.3955C49.5302 24.5629 49.8575 24.8426 50.0833 25.1983C50.309 25.554 50.4226 25.9693 50.4094 26.3904C50.3976 26.6762 50.3288 26.9567 50.2072 27.2156C50.0855 27.4745 49.9134 27.7065 49.701 27.8981L38.7589 37.4927C38.6793 37.549 38.5815 37.5743 38.4847 37.5621ZM37.2743 35.4136L38.4162 36.5786L49.1527 27.235C49.4183 27.0037 49.5768 26.6731 49.587 26.321C49.5973 25.9689 49.4586 25.6245 49.199 25.3847C48.9593 25.146 48.6348 25.0119 48.2965 25.0119C47.9582 25.0119 47.6337 25.146 47.394 25.3847L37.2743 35.4136Z" fill="#FF6C37"/>
<path d="M28.8448 47.1788C28.8155 47.2185 28.7998 47.2665 28.7998 47.3158C28.7998 47.3651 28.8155 47.4132 28.8448 47.4529L29.3014 49.4403C29.3197 49.5573 29.3023 49.677 29.2516 49.784C29.2009 49.891 29.1191 49.9802 29.017 50.04C28.9152 50.0995 28.7971 50.1252 28.6798 50.1134C28.5625 50.1015 28.452 50.0527 28.3642 49.974L25.2348 46.9586L34.9896 37.1267H38.3708L40.6555 39.4114C37.0916 42.5274 33.1177 45.1408 28.8448 47.1788Z" fill="white"/>
<path d="M28.6392 50.5369C28.3804 50.5317 28.1252 50.4255 27.9538 50.2396L24.9615 47.2473C24.9187 47.213 24.8841 47.1696 24.8603 47.1201C24.8365 47.0707 24.8242 47.0165 24.8242 46.9616C24.8242 46.9067 24.8365 46.8526 24.8603 46.8031C24.8841 46.7537 24.9187 46.7102 24.9615 46.6759L34.784 36.8303C34.839 36.7719 34.9108 36.732 34.9896 36.7164H38.3931C38.4818 36.685 38.5785 36.685 38.6672 36.7164L40.9519 39.0011C40.9954 39.0412 41.0284 39.0912 41.0483 39.1468C41.0681 39.2025 41.0742 39.2621 41.0659 39.3206C41.0675 39.3774 41.0559 39.4338 41.0322 39.4853C41.0084 39.5369 40.973 39.5823 40.9288 39.6179L40.7463 39.7781C37.168 42.7612 33.2312 45.2859 29.0272 47.2936L29.4615 49.1439C29.4951 49.2867 29.4964 49.4351 29.4653 49.5784C29.4342 49.7217 29.3715 49.8563 29.2818 49.9723C29.1921 50.0883 29.0776 50.1828 28.9467 50.2489C28.8158 50.315 28.6718 50.351 28.5252 50.3544L28.6392 50.5369ZM25.8524 46.95L28.5475 49.6682C28.5726 49.6906 28.6051 49.703 28.6387 49.703C28.6724 49.703 28.7048 49.6906 28.73 49.6682C28.7468 49.6449 28.7558 49.6169 28.7558 49.5881C28.7558 49.5594 28.7468 49.5314 28.73 49.508L28.2734 47.5206C28.2374 47.3779 28.2518 47.2273 28.3143 47.0941C28.3767 46.9609 28.4834 46.8534 28.616 46.7898C32.7069 44.809 36.5423 42.3389 40.0379 39.4337L38.1644 37.5602H35.1035L25.8524 46.95Z" fill="#FF6C37"/>
<path d="M22.8824 49.3033L25.1671 47.0186L28.6854 50.5369L23.0889 50.1488C22.9928 50.1413 22.9015 50.1036 22.8281 50.0411C22.7547 49.9786 22.7029 49.8946 22.6802 49.8009C22.6574 49.7073 22.6647 49.6088 22.7012 49.5196C22.7377 49.4304 22.8014 49.355 22.8833 49.3041L22.8824 49.3033Z" fill="white"/>
<path d="M28.7531 50.8797L23.1788 50.4916C22.8481 50.4608 22.5637 50.2346 22.4472 49.9322C22.3307 49.6298 22.4018 49.2709 22.6305 49.0293L24.9153 46.7446C24.9919 46.6705 25.0944 46.6292 25.201 46.6292C25.3076 46.6292 25.41 46.6705 25.4867 46.7446L28.9818 50.2398C29.0302 50.3061 29.0563 50.386 29.0563 50.4681C29.0563 50.5502 29.0302 50.6301 28.9818 50.6964C28.929 50.7818 28.8481 50.8472 28.7531 50.8797ZM23.1788 49.6007L27.7474 49.898L25.2348 47.5447L23.1788 49.6007Z" fill="#FF6C37"/>
<path d="M38.6903 37.4026L34.0755 38.1111L36.7483 35.4614L38.6903 37.4026Z" fill="white"/>
<path d="M34.0755 38.5438C33.9988 38.5458 33.9232 38.5252 33.8582 38.4845C33.7931 38.4438 33.7415 38.3849 33.7097 38.3151C33.6611 38.2489 33.6348 38.1689 33.6348 38.0868C33.6348 38.0046 33.6611 37.9247 33.7097 37.8585L36.3593 35.1857C36.4397 35.1102 36.5459 35.0681 36.6562 35.0681C36.7665 35.0681 36.8726 35.1102 36.953 35.1857L38.8959 37.1269C38.9347 37.1884 38.9553 37.2597 38.9553 37.3325C38.9553 37.4053 38.9347 37.4765 38.8959 37.5381C38.8769 37.6131 38.8366 37.681 38.7799 37.7338C38.7232 37.7865 38.6526 37.8218 38.5764 37.8353L34.0078 38.5438H34.0755ZM36.7483 36.0535L35.2637 37.5381L37.8225 37.15L36.7483 36.0535Z" fill="#FF6C37"/>
<path d="M38.6904 37.401L35.4693 37.8122C35.3831 37.8318 35.2929 37.8231 35.2121 37.7873C35.1312 37.7516 35.064 37.6908 35.0205 37.6138C34.9769 37.5369 34.9593 37.448 34.9703 37.3603C34.9812 37.2726 35.0201 37.1908 35.0812 37.1269L36.7492 35.459L38.6904 37.401Z" fill="white"/>
<path d="M35.3777 38.2474C35.2284 38.246 35.0821 38.2051 34.9537 38.1288C34.8254 38.0525 34.7195 37.9436 34.6469 37.8131C34.5597 37.6567 34.5259 37.4762 34.5506 37.2988C34.5754 37.1215 34.6573 36.9571 34.784 36.8305L36.4519 35.1626C36.5323 35.0871 36.6384 35.045 36.7487 35.045C36.859 35.045 36.9652 35.0871 37.0456 35.1626L38.9876 37.1047C39.0454 37.1594 39.086 37.2297 39.1046 37.307C39.1232 37.3844 39.119 37.4655 39.0924 37.5405C39.0658 37.6155 39.0181 37.6811 38.9549 37.7295C38.8918 37.7779 38.8159 37.807 38.7366 37.8131L35.5387 38.2243L35.3777 38.2474ZM35.3777 37.4019L37.7994 37.1047L36.726 36.0313L35.3554 37.4019H35.3777ZM55.2522 20.8855C55.2091 20.8134 55.1411 20.7597 55.0611 20.7344C54.981 20.7091 54.8944 20.7141 54.8178 20.7485C54.78 20.7676 54.7464 20.7942 54.7191 20.8265C54.6917 20.8589 54.6711 20.8964 54.6585 20.9369C54.6331 21.0186 54.6411 21.107 54.6808 21.1828C54.841 21.5195 54.7964 21.9178 54.5668 22.2108C54.5383 22.239 54.516 22.2728 54.5012 22.3101C54.4865 22.3475 54.4797 22.3874 54.4812 22.4275C54.482 22.5079 54.5125 22.585 54.5668 22.6442C54.6255 22.6674 54.6907 22.6674 54.7493 22.6442C54.8025 22.6576 54.8583 22.6561 54.9107 22.64C54.9632 22.6238 55.0101 22.5936 55.0466 22.5526C55.2347 22.3223 55.3538 22.0434 55.3902 21.7483C55.4266 21.4532 55.3787 21.1546 55.2522 20.8855Z" fill="#FF6C37"/>
</svg>
