<svg width="59" height="60" viewBox="0 0 59 60" fill="none" xmlns="http://www.w3.org/2000/svg">
<path d="M58.3566 35.9413C58.0078 34.8819 57.094 34.144 55.9123 33.967C55.3551 33.8836 54.717 33.9191 53.9618 34.0752C52.6456 34.3475 51.6691 34.4512 50.9564 34.4713C53.6464 29.9171 55.8337 24.7238 57.0928 19.8351C59.129 11.9302 58.0409 8.32907 56.7695 6.7002C53.4046 2.38874 48.4953 0.072586 42.5727 0.00171585C39.4133 -0.0370234 36.6397 0.588502 35.1928 1.03833C33.8457 0.799973 32.3972 0.666892 30.8773 0.642282C28.0283 0.596706 25.511 1.2195 23.3601 2.49949C22.1693 2.09569 20.2582 1.52645 18.0511 1.16321C12.8603 0.308668 8.67661 0.974528 5.61646 3.14233C1.91093 5.76704 0.19315 10.3273 0.510845 16.6965C0.611744 18.7187 1.73981 24.8714 3.516 30.7065C4.5368 34.0604 5.62533 36.8455 6.75135 38.9853C8.34823 42.0195 10.0569 43.8063 11.9751 44.448C13.0503 44.8071 15.0037 45.0587 17.0583 43.3428C17.3187 43.6591 17.6662 43.9733 18.1272 44.2652C18.7129 44.6355 19.4289 44.9382 20.1441 45.1175C22.7213 45.7635 25.1354 45.602 27.195 44.6964C27.2077 45.0637 27.2175 45.4147 27.2256 45.7177C27.2393 46.2093 27.2529 46.6912 27.2709 47.142C27.3929 50.1896 27.5997 52.5593 28.2124 54.2174C28.246 54.3085 28.2912 54.4475 28.3389 54.595C28.6446 55.5334 29.1557 57.1044 30.456 58.3347C31.8025 59.6092 33.4312 60 34.9228 60C35.6709 60 36.3847 59.9016 37.0108 59.7671C39.2424 59.2874 41.7769 58.5568 43.6103 55.939C45.3438 53.4642 46.1865 49.7368 46.3389 43.8637C46.3587 43.6976 46.3769 43.539 46.3944 43.3879L46.4307 43.0775L46.8391 43.1135L46.9443 43.1206C49.2173 43.2245 51.9965 42.7412 53.7034 41.9461C55.0521 41.3185 59.3742 39.0304 58.3566 35.9413Z" fill="black"/>
<path d="M54.4702 36.5421C47.7118 37.9401 47.2471 35.6456 47.2471 35.6456C54.3827 25.0281 57.3658 11.5506 54.7918 8.25209C47.7689 -0.745688 35.6121 3.50972 35.4092 3.62001L35.344 3.63186C34.0086 3.35385 32.5145 3.18841 30.8349 3.16083C27.777 3.1107 25.4572 3.96479 23.6969 5.30335C23.6969 5.30335 2.01048 -3.65547 3.01924 16.5706C3.23376 20.8734 9.16953 49.1283 16.2493 40.594C18.837 37.4732 21.3374 34.8346 21.3374 34.8346C22.5791 35.6618 24.0658 36.0838 25.6243 35.9323L25.7454 35.8293C25.7077 36.2167 25.7249 36.5956 25.7938 37.0443C23.9699 39.0877 24.506 39.4464 20.86 40.1991C17.1706 40.9615 19.3378 42.3188 20.7529 42.6738C22.4684 43.1038 26.4371 43.7132 29.1187 39.9489L29.0119 40.3784C29.7263 40.9524 30.2281 44.1117 30.144 46.9759C30.0599 49.8399 30.0038 51.8063 30.5667 53.3422C31.1301 54.8781 31.6911 58.3339 36.4843 57.3041C40.4891 56.4434 42.5646 54.2131 42.8534 50.4928C43.0582 47.848 43.522 48.2391 43.5511 45.8744L43.9231 44.755C44.3519 41.1698 43.9913 40.0131 46.4585 40.5511L47.0585 40.604C48.8742 40.6867 51.2512 40.311 52.6463 39.6608C55.6501 38.263 57.4318 35.9289 54.4698 36.5421H54.4702Z" fill="#336791"/>
<path d="M24.9664 18.4947C24.3573 18.4097 23.8058 18.4883 23.5267 18.7002C23.3699 18.8194 23.3213 18.9575 23.3081 19.0525C23.2731 19.3043 23.449 19.5828 23.5572 19.7263C23.8631 20.1329 24.3098 20.4123 24.7521 20.4738C24.8162 20.4829 24.88 20.487 24.9434 20.487C25.6808 20.487 26.3515 19.9112 26.4105 19.4862C26.4844 18.9538 25.7138 18.599 24.9664 18.4949V18.4947ZM45.1425 18.5115C45.0843 18.0943 44.344 17.9753 43.6413 18.0733C42.9396 18.1713 42.2592 18.489 42.316 18.9071C42.3614 19.2323 42.9471 19.7874 43.6402 19.7874C43.6988 19.7874 43.7579 19.7835 43.8174 19.7751C44.2801 19.7108 44.6196 19.4162 44.781 19.2464C45.0264 18.9876 45.1687 18.6991 45.1425 18.5115Z" fill="white"/>
<path d="M56.7192 36.3832C56.4615 35.6018 55.632 35.3504 54.254 35.6357C50.1623 36.4825 48.697 35.896 48.2159 35.5407C51.3963 30.6823 54.0126 24.8095 55.4241 19.3301C56.0927 16.7346 56.4619 14.3241 56.4922 12.3593C56.5256 10.2029 56.1592 8.61821 55.4039 7.65019C52.3582 3.74776 47.8882 1.65447 42.4774 1.59704C38.7575 1.55511 35.6147 2.5097 35.0054 2.77814C33.7224 2.4582 32.3236 2.26176 30.8008 2.2367C28.0084 2.19135 25.5945 2.86177 23.5961 4.22836C22.728 3.90431 20.4846 3.13203 17.741 2.68881C12.9978 1.92314 9.22865 2.50332 6.53892 4.41408C3.32946 6.69423 1.84779 10.7701 2.13481 16.5281C2.23139 18.4653 3.33219 24.4248 5.06929 30.132C7.35588 37.6438 9.84155 41.8963 12.4567 42.7711C12.7628 42.8734 13.1158 42.945 13.505 42.945C14.459 42.945 15.6287 42.5138 16.8456 41.0467C18.3299 39.2612 19.8653 37.519 21.4499 35.8224C22.478 36.3757 23.6075 36.6847 24.7626 36.7157C24.7648 36.746 24.7678 36.7763 24.7705 36.8064C24.5717 37.0441 24.377 37.2853 24.1865 37.5299C23.3861 38.5487 23.2195 38.7609 20.6432 39.2927C19.9103 39.4445 17.9639 39.8467 17.9353 41.2149C17.9044 42.7098 20.2362 43.3376 20.5019 43.4041C21.4277 43.6366 22.3196 43.7512 23.1702 43.7512C25.2389 43.7512 27.0594 43.0694 28.5142 41.7502C28.4695 47.0794 28.691 52.3306 29.3292 53.9305C29.8518 55.2404 31.1285 58.4414 35.1613 58.4412C35.7531 58.4412 36.4044 58.3721 37.1209 58.2181C41.3298 57.3134 43.1576 55.448 43.8645 51.3354C44.2429 49.1376 44.8922 43.8893 45.1976 41.0741C45.8421 41.2757 46.6718 41.368 47.5687 41.3678C49.4394 41.3678 51.5981 40.9692 52.9518 40.3392C54.4726 39.6309 57.2169 37.8931 56.7192 36.3832ZM46.6961 17.3599C46.6822 18.1909 46.5681 18.9454 46.4472 19.733C46.317 20.58 46.1825 21.4558 46.1486 22.5188C46.1152 23.5534 46.2441 24.629 46.3686 25.6692C46.6204 27.7703 46.8788 29.9333 45.8787 32.0676C45.7125 31.7724 45.5645 31.4673 45.4355 31.1541C45.3112 30.8519 45.0412 30.3665 44.6674 29.6947C43.2132 27.0796 39.8079 20.9556 41.5511 18.4566C42.0704 17.7129 43.3882 16.9481 46.6961 17.3599ZM42.6865 3.27993C47.5346 3.38726 51.3697 5.20596 54.0849 8.68521C56.1674 11.3539 53.8742 23.4969 47.2356 33.9727C47.1688 33.8876 47.1017 33.8027 47.0342 33.7181L46.9501 33.6129C48.6657 30.7719 48.3302 27.961 48.0316 25.4689C47.9089 24.4462 47.793 23.4802 47.8226 22.5728C47.853 21.6112 47.9798 20.7863 48.1025 19.9887C48.2532 19.0058 48.4066 17.9888 48.3643 16.7899C48.3959 16.6642 48.4086 16.5156 48.392 16.3392C48.2841 15.1896 46.9751 11.7488 44.3072 8.63462C42.8478 6.93123 40.7196 5.02502 37.8138 3.73933C39.0637 3.47955 40.7728 3.23731 42.6865 3.27993ZM15.5578 39.973C14.217 41.5895 13.2912 41.2796 12.9867 41.178C11.0028 40.5144 8.70075 36.3096 6.67118 29.6418C4.91499 23.8724 3.88872 18.0709 3.80737 16.444C3.55103 11.299 4.79477 7.71331 7.50428 5.78637C11.9138 2.65075 19.1636 4.52756 22.0767 5.47941C22.0349 5.52089 21.9913 5.55963 21.9499 5.60178C17.1695 10.4428 17.2829 18.7139 17.2947 19.2196C17.2942 19.4147 17.3106 19.6908 17.3329 20.0707C17.4151 21.4619 17.5683 24.0511 17.1592 26.9832C16.7793 29.7079 17.6169 32.3748 19.457 34.3001C19.6458 34.4974 19.8443 34.6851 20.0517 34.8626C19.2327 35.7422 17.4526 37.6873 15.5578 39.973ZM20.6662 33.1382C19.1831 31.5863 18.5096 29.4279 18.8179 27.2156C19.2497 24.1183 19.0904 21.4207 19.0047 19.9714C18.9927 19.7685 18.982 19.5908 18.9759 19.4507C19.6742 18.8297 22.9105 17.091 25.2184 17.6212C26.2715 17.863 26.9133 18.5822 27.1801 19.8191C28.5608 26.2232 27.3628 28.8924 26.4001 31.0374C26.2017 31.4792 26.0143 31.8969 25.8543 32.329L25.7302 32.6631C25.4161 33.5076 25.1239 34.2929 24.9428 35.0385C23.3661 35.0339 21.8324 34.3585 20.6662 33.138V33.1382ZM20.9082 41.7748C20.4478 41.6595 20.0337 41.4592 19.7908 41.2931C19.9937 41.1974 20.3548 41.067 20.9811 40.9376C24.012 40.312 24.4801 39.8704 25.5023 38.569C25.7366 38.2705 26.0022 37.9323 26.3701 37.5203L26.3706 37.5198C26.9185 36.9046 27.1691 37.0089 27.6236 37.1981C27.992 37.3508 28.3509 37.8138 28.4963 38.3233C28.5651 38.564 28.6424 39.0207 28.3895 39.3761C26.2542 42.3741 23.1427 42.3356 20.9082 41.7748ZM36.77 56.576C33.0622 57.3726 31.7494 55.4756 30.8842 53.3068C30.3259 51.9067 30.0514 45.5931 30.2461 38.6207C30.2486 38.528 30.2354 38.4384 30.21 38.3541C30.1872 38.1876 30.1526 38.023 30.1064 37.8614C29.8168 36.8469 29.1112 35.9983 28.2647 35.6465C27.9284 35.5068 27.3112 35.2504 26.5694 35.4407C26.7276 34.7871 27.0019 34.049 27.2994 33.2499L27.4241 32.9137C27.5646 32.5348 27.7409 32.1421 27.9273 31.7265C28.9347 29.4823 30.3143 26.4085 28.8169 19.4643C28.2561 16.8633 26.3831 15.5931 23.5438 15.8882C21.8417 16.0648 20.2844 16.7535 19.5076 17.1484C19.3406 17.2332 19.1879 17.3152 19.0452 17.395C19.262 14.7744 20.081 9.87679 23.1448 6.77809C25.0739 4.82745 27.643 3.86398 30.7731 3.91594C36.9407 4.01711 40.8957 7.19101 43.1278 9.836C45.0512 12.115 46.0927 14.4109 46.5084 15.6492C43.3825 15.3304 41.2566 15.9491 40.179 17.4941C37.8345 20.8548 41.4616 27.3776 43.2048 30.5126C43.5246 31.0871 43.8005 31.5836 43.8873 31.7946C44.4549 33.1742 45.1899 34.0953 45.7264 34.7675C45.8909 34.9735 46.0505 35.1734 46.1718 35.3479C45.2251 35.6216 43.5246 36.254 43.6796 39.4149C43.5546 41.0009 42.6658 48.4266 42.2143 51.0501C41.6182 54.5162 40.3463 55.8071 36.77 56.5762V56.576ZM52.2467 38.816C51.2786 39.2665 49.6585 39.6045 48.1196 39.6772C46.4197 39.7569 45.5544 39.4862 45.3508 39.3196C45.2553 37.3498 45.9864 37.1441 46.7602 36.9262C46.8817 36.892 47.0004 36.8585 47.1149 36.8184C47.186 36.8765 47.264 36.9342 47.3494 36.9907C48.7157 37.8949 51.1525 37.9925 54.5928 37.2803L54.6305 37.2728C54.1665 37.7078 53.3725 38.2917 52.2467 38.816Z" fill="white"/>
</svg>
