<svg width="60" height="60" viewBox="0 0 60 60" fill="none" xmlns="http://www.w3.org/2000/svg">
<g clip-path="url(#clip0_609_535)">
<path d="M0.278672 25.6744C0.135739 26.6762 0.0427334 27.6845 0 28.6955H45.5742C45.415 28.3846 45.2012 28.1043 44.9856 27.83C37.1944 17.7641 33.0033 18.6368 27.0079 18.3811C25.009 18.2989 23.6535 18.2659 15.6972 18.2659C11.4387 18.2659 6.80918 18.2767 2.30098 18.2887C1.71738 19.864 1.15453 21.3908 0.880488 22.6329H24.2343V25.6744H0.278672ZM45.9334 31.7401H0.0233789C0.0714258 32.5517 0.147129 33.3524 0.256465 34.1424H42.6426C44.5321 34.1424 45.5899 33.0703 45.9334 31.7401ZM2.63771 42.4399C2.63771 42.4399 9.66451 59.6936 29.9684 60.0001C42.1038 60.0001 52.5311 52.7927 57.2676 42.4399H2.63771Z" fill="white"/>
<path d="M29.968 0C18.7472 0 8.98304 6.16172 3.82673 15.2702C7.85628 15.2618 15.7039 15.257 15.7039 15.257H15.7057V15.254C24.9817 15.254 25.3264 15.2954 27.1384 15.3711L28.2604 15.4124C32.1686 15.5428 36.9723 15.9623 40.752 18.822C42.8037 20.373 45.766 23.7964 47.5318 26.2353C49.1643 28.4911 49.6339 31.0843 48.524 33.5688C47.5023 35.8522 45.3041 37.2142 42.6422 37.2142H0.977905C0.977905 37.2142 1.22593 38.2656 1.59783 39.4262H58.4708C59.4808 36.3904 59.9971 33.2122 60 30.0128C60.0006 13.4388 46.5546 0 29.968 0Z" fill="white"/>
</g>
<defs>
<clipPath id="clip0_609_535">
<rect width="60" height="60" fill="white"/>
</clipPath>
</defs>
</svg>
