<svg width="61" height="36" viewBox="0 0 61 36" fill="none" xmlns="http://www.w3.org/2000/svg">
<path d="M30.2578 0.00488281C22.2575 0.00488281 17.2576 4.00388 15.2574 12.0011C18.2578 8.00212 21.7578 6.50306 25.7576 7.50243C28.0399 8.07265 29.671 9.72851 31.477 11.5607C34.4181 14.5453 37.8221 17.9996 45.2581 17.9996C53.2576 17.9996 58.2583 14.0006 60.2578 6.00262C57.2581 10.0016 53.7581 11.5014 49.7576 10.5021C47.476 9.93184 45.8448 8.27597 44.0389 6.44379C41.0978 3.45917 37.693 0.00488281 30.2578 0.00488281ZM15.2574 17.9996C7.25788 17.9996 2.25725 21.9986 0.257751 29.9966C3.25738 25.9976 6.75744 24.4978 10.7579 25.4979C13.0395 26.0689 14.6707 27.724 16.4766 29.5554C19.4177 32.54 22.8225 35.9951 30.2578 35.9951C38.258 35.9951 43.2579 31.9961 45.2581 23.9981C42.2578 27.9971 38.7577 29.4969 34.7579 28.4968C32.4756 27.9273 30.8445 26.2707 29.0385 24.4393C26.0974 21.4546 22.6934 17.9996 15.2574 17.9996Z" fill="#06B6D4"/>
</svg>
